<?xml version="1.0" encoding="UTF-8"?>
<svg xmlns="http://www.w3.org/2000/svg" xmlns:xlink="http://www.w3.org/1999/xlink" width="40pt" height="36pt" viewBox="0 0 40 36" version="1.1">
<g id="surface1">
<path style=" stroke:none;fill-rule:evenodd;fill:rgb(13.333333%,13.333333%,13.333333%);fill-opacity:1;" d="M 3.539062 4.910156 C 3.539062 4.910156 7.308594 4.910156 7.308594 4.910156 C 7.308594 4.910156 12.675781 24.546875 12.675781 24.546875 C 12.832031 25.121094 13.355469 25.523438 13.949219 25.523438 C 13.949219 25.523438 30.453125 25.523438 30.453125 25.523438 C 30.980469 25.523438 31.441406 25.210938 31.660156 24.722656 C 31.660156 24.722656 37.664062 10.761719 37.664062 10.761719 C 37.839844 10.339844 37.796875 9.875 37.554688 9.496094 C 37.316406 9.121094 36.898438 8.898438 36.460938 8.898438 C 36.460938 8.898438 18.222656 8.898438 18.222656 8.898438 C 17.5 8.898438 16.90625 9.496094 16.90625 10.230469 C 16.90625 10.960938 17.5 11.558594 18.222656 11.558594 C 18.222656 11.558594 34.441406 11.558594 34.441406 11.558594 C 34.441406 11.558594 29.578125 22.863281 29.578125 22.863281 C 29.578125 22.863281 14.933594 22.863281 14.933594 22.863281 C 14.933594 22.863281 9.566406 3.226562 9.566406 3.226562 C 9.410156 2.648438 8.886719 2.25 8.292969 2.25 C 8.292969 2.25 3.539062 2.25 3.539062 2.25 C 2.8125 2.25 2.222656 2.847656 2.222656 3.578125 C 2.222656 4.3125 2.8125 4.910156 3.539062 4.910156 Z M 12.699219 34.875 C 14.34375 34.875 15.679688 33.523438 15.679688 31.859375 C 15.679688 30.199219 14.34375 28.847656 12.699219 28.847656 C 11.054688 28.847656 9.71875 30.199219 9.71875 31.859375 C 9.71875 33.523438 11.054688 34.875 12.699219 34.875 Z M 31.332031 34.875 C 31.398438 34.875 31.484375 34.875 31.550781 34.875 C 32.339844 34.808594 33.0625 34.453125 33.589844 33.832031 C 34.113281 33.234375 34.355469 32.460938 34.3125 31.640625 C 34.203125 30 32.777344 28.734375 31.132812 28.847656 C 29.488281 28.957031 28.261719 30.421875 28.371094 32.058594 C 28.480469 33.632812 29.773438 34.875 31.332031 34.875 Z M 31.332031 34.875 "/>
</g>
</svg>
